<svg width="56" height="56" viewBox="0 0 56 56" fill="none" xmlns="http://www.w3.org/2000/svg">
<path d="M40.8615 35.6512C40.8615 27.575 34.2465 26.6545 28.9318 25.916C23.1393 25.111 19.8615 24.411 19.8615 19.4235C19.8615 15.2375 24.2487 13.75 28.006 13.75C29.8784 13.6895 31.7384 14.075 33.4325 14.8746C35.1267 15.6742 36.6065 16.8651 37.75 18.349L40.473 16.151C39.2485 14.5763 37.7247 13.2592 35.9895 12.2753C34.2542 11.2914 32.3415 10.6602 30.3615 10.418V5H26.8615V10.2885C20.5352 10.6735 16.3615 14.2435 16.3615 19.4235C16.3615 27.701 23.064 28.6337 28.4487 29.381C34.1415 30.1737 37.3615 30.8545 37.3615 35.6512C37.3615 40.9572 31.8787 41.75 28.6115 41.75C22.609 41.75 20.075 40.063 17.723 37.151L15 39.349C16.3873 41.1772 18.1817 42.6568 20.2407 43.6705C22.2996 44.6842 24.5666 45.2041 26.8615 45.1888V50.5H30.3615V45.1712C36.882 44.6393 40.8615 41.099 40.8615 35.6512Z" fill="#23B123"/>
</svg>
